HIERARCHY
ROOT Hips
{
	OFFSET 0.00000 0.00000 0.00000
	CHANNELS 6 Xposition Yposition Zposition Yrotation Zrotation Xrotation 
	JOINT Lumbar
	{
		OFFSET 0 0 0
		CHANNELS 3 Zrotation Xrotation Yrotation
		JOINT Neck
		{
			OFFSET 0.00 0.2701 0.00
			CHANNELS 3 Zrotation Xrotation Yrotation
			End Site
			{
				OFFSET 0.00 0.1379 0.00
			}
		}
		JOINT RightShoulder
		{
			OFFSET 0.0119 0.2289 0.1181
			CHANNELS 3 Zrotation Xrotation Yrotation
			JOINT RightElbow
			{
				OFFSET 0.00 -0.1475 0.00
				CHANNELS 2 Zrotation Yrotation
				JOINT RightWrist
				{
					OFFSET 0.00 -0.1605 0.00
					CHANNELS 2 Zrotation Xrotation
					End Site
					{
						OFFSET 0.0040 -0.1068 0.0006
					}
				}
			}
		}
		JOINT LeftShoulder
		{
			OFFSET 0.0119 0.2289 -0.1181
			CHANNELS 3 Zrotation Xrotation Yrotation
			JOINT LeftElbow
			{
				OFFSET 0.00 -0.1475 0.00
				CHANNELS 2 Zrotation Yrotation
				JOINT LeftWrist
				{
					OFFSET 0.00 -0.1605 0.00
					CHANNELS 2 Zrotation Xrotation
					End Site
					{
						OFFSET 0.0040 -0.1068 -0.0006
					}
				}
			}
		}
	}
	JOINT RightHip
	{
		OFFSET 0.0316 -0.0424 0.0458
		CHANNELS 3 Zrotation Xrotation Yrotation
		JOINT RightKnee
		{
			OFFSET 0.00 -0.2438 0.00
			CHANNELS 1 Zrotation
			JOINT RightAnkle
			{
				OFFSET 0.00 -0.2449 0.00
				CHANNELS 3 Zrotation Xrotation Yrotation
				End Site
				{
					OFFSET 0.1237 -0.0542 0.0051
				}
			}
		}
	}
	JOINT LeftHip
	{
		OFFSET 0.0316 -0.0424 -0.0458
		CHANNELS 3 Zrotation Xrotation Yrotation
		JOINT LeftKnee
		{
			OFFSET 0.00 -0.2438 0.00
			CHANNELS 1 Zrotation
			JOINT LeftAnkle
			{
				OFFSET 0.00 -0.2449 0.00
				CHANNELS 3 Zrotation Xrotation Yrotation
				End Site
				{
					OFFSET 0.1237 -0.0542 -0.0051
				}
			}
		}
	}
}
MOTION
Frames: 19
Frame Time: 0.02
0.09585 0.00044 0.10246 39.15418 -21.28321 -12.84179 41.05954 7.16907 0.19954 -10.07606 -7.40105 -2.11994 -62.02541 -58.91428 45.11558 114.47774 119.22503 -51.33393 -7.17883 -25.90237 71.26409 84.36125 105.70959 -46.96461 -42.84164 -1.21353 33.84532 7.66639 -21.59794 -20.53533 5.67167 4.59043 0.35348 47.14756 14.36892 4.67392 -42.83883 -6.51854 2.11829 3.25375
0.09561 0.00016 0.10257 39.10548 -21.27986 -12.92821 40.97324 7.31197 0.35542 -10.72967 -7.31185 -2.11994 -62.04563 -58.39203 45.49931 114.28841 118.92008 -52.46416 -7.08391 -24.13471 68.96106 85.10631 106.62189 -49.05003 -39.99179 -1.14602 33.90268 7.7106 -21.73057 -20.6267 6.06153 4.87212 0.46249 47.25453 14.51478 4.79791 -42.99434 -6.50647 2.10805 3.24963
0.09533 -0.00013 0.10263 39.1428 -21.22876 -13.01832 40.87339 7.48244 0.45612 -11.42403 -7.34384 -2.11994 -62.04207 -58.19617 45.77752 114.272 118.60733 -53.33007 -7.01472 -17.62916 66.5117 81.46092 107.32702 -52.3272 -35.96006 -0.9928 33.90212 7.75412 -21.83159 -20.71635 5.85325 4.92361 0.43037 47.31697 14.63768 4.87801 -43.1484 -6.49607 2.09461 3.24494
0.09506 -0.00041 0.10272 39.15155 -21.20129 -13.10473 40.77725 7.63328 0.57969 -12.07562 -7.32976 -2.11994 -62.03997 -57.8673 46.10281 114.17732 118.28357 -54.25397 -6.93368 -13.5806 64.21315 79.94894 108.11535 -54.95364 -32.61049 -0.88229 33.9286 7.79638 -21.94498 -20.80402 5.93584 5.07726 0.46307 47.39938 14.76748 4.97767 -43.29658 -6.48549 2.08135 3.23988
0.0948 -0.00073 0.10278 39.11595 -21.16516 -13.20057 40.6906 7.81392 0.7118 -12.83062 -7.27592 -2.11994 -62.06799 -57.46334 46.44713 114.07377 117.99073 -55.43529 -6.84896 -8.33333 61.52418 77.94728 108.94969 -58.02202 -28.66731 -0.75725 33.95152 7.84535 -22.07204 -20.9042 5.96837 5.25324 0.49942 47.48284 14.91528 5.08364 -43.47335 -6.47231 2.07286 3.23717
0.09452 -0.00096 0.10289 39.19339 -21.13633 -13.27752 40.58194 7.93948 0.81295 -13.37944 -7.3343 -2.11994 -62.0319 -57.29636 46.71947 114.03296 117.64268 -56.01844 -6.77978 -4.40953 59.62438 75.87161 109.64343 -60.46347 -25.66566 -0.64183 33.96881 7.88002 -22.16138 -20.97786 5.94295 5.32076 0.49074 47.55422 15.01817 5.1623 -43.59012 -6.46498 2.05415 3.22964
0.09421 -0.00093 0.10317 39.55843 -21.13423 -13.29851 40.40767 7.90162 0.84669 -13.35014 -7.67308 -2.11994 -61.81609 -57.71537 46.83625 114.11897 117.15373 -55.02961 -6.7461 -5.49646 59.96948 74.85792 109.94662 -60.83623 -25.6441 -0.57163 33.97808 7.8769 -22.1505 -20.97539 6.01247 5.17958 0.41008 47.59457 15.01276 5.20154 -43.5379 -6.4736 2.00502 3.20759
0.09387 -0.00081 0.10349 40.03453 -21.14196 -13.30063 40.21309 7.80819 0.85053 -13.11195 -8.12057 -2.11994 -61.5394 -58.36085 46.87928 114.26364 116.61297 -53.4474 -6.72803 -8.03392 61.11202 73.87773 110.12535 -60.5444 -26.59525 -0.51453 33.98476 7.85909 -22.10249 -20.9467 6.02375 4.93054 0.28547 47.62556 14.96102 5.21063 -43.42577 -6.48804 1.94624 3.18096
0.09353 -0.00073 0.10379 40.46251 -21.1487 -13.31324 40.03344 7.74317 0.86517 -12.96806 -8.51875 -2.11994 -61.29741 -58.89706 46.94238 114.38555 116.09304 -52.12608 -6.70409 -9.76712 61.87722 72.74131 110.39425 -60.59318 -27.03619 -0.4524 33.99717 7.84705 -22.07336 -20.9321 5.98417 4.7057 0.16791 47.66667 14.92322 5.21549 -43.34331 -6.49969 1.89395 3.15738
0.09322 -0.00064 0.10411 40.88501 -21.13961 -13.31832 39.83 7.66582 0.88948 -12.82684 -8.92179 -2.11994 -61.02475 -59.47224 47.05773 114.49812 115.58035 -50.82673 -6.67564 -11.94345 62.70621 72.03538 110.51129 -60.53366 -27.71197 -0.38239 33.98896 7.83896 -22.0354 -20.90847 6.23968 4.57346 0.09787 47.68248 14.91357 5.29091 -43.25072 -6.51195 1.83292 3.1298
0.09286 -0.00056 0.10439 41.34236 -21.16577 -13.33402 39.6705 7.60058 0.88747 -12.6317 -9.33759 -2.11994 -60.80185 -60.01458 47.04944 114.64033 115.04474 -49.35139 -6.6602 -13.60926 63.58559 70.51402 110.9213 -60.50978 -28.15981 -0.3343 34.02307 7.81897 -22.00659 -20.89722 5.8881 4.23111 -0.07703 47.74809 14.836 5.21735 -43.16479 -6.52435 1.78752 3.10931
0.09235 -0.00056 0.10456 41.88365 -21.29328 -13.3881 39.64607 7.58225 0.81942 -12.32382 -9.77295 -2.11994 -60.73202 -60.42004 46.70611 114.86263 114.42376 -47.47593 -6.67487 -13.47735 64.48082 66.61377 112.13938 -60.88766 -27.61672 -0.33256 34.18164 7.77126 -22.01904 -20.9284 3.75796 3.28907 -0.55392 47.96449 14.56952 4.70023 -43.11351 -6.53549 1.79063 3.11091
0.09178 -0.00058 0.10468 42.45276 -21.45515 -13.45255 39.66524 7.57791 0.72691 -11.97188 -10.21447 -2.11994 -60.71464 -60.78101 46.24377 115.10952 113.78836 -45.45727 -6.70229 -12.81335 65.38619 61.93857 113.66189 -61.29463 -26.83828 -0.3546 34.38206 7.71172 -22.04074 -20.97256 1.04302 2.14884 -1.12988 48.2296 14.23859 4.0417 -43.07055 -6.54661 1.80928 3.11956
0.09124 -0.0006 0.10482 42.99923 -21.59711 -13.50945 39.65844 7.56712 0.64559 -11.64922 -10.64576 -2.11994 -60.67251 -61.15504 45.84377 115.33611 113.18216 -43.54316 -6.7251 -12.43596 66.24132 57.71466 115.06868 -61.58681 -26.25631 -0.37375 34.55878 7.65668 -22.05396 -21.00965 -1.32421 1.13081 -1.64447 48.4653 13.94579 3.47418 -43.02293 -6.55786 1.81881 3.12404
0.09071 -0.00061 0.10498 43.59269 -21.75677 -13.57812 39.67591 7.55482 0.5605 -11.27861 -11.11343 -2.11994 -60.63093 -61.56855 45.40542 115.60348 112.47754 -41.43741 -6.74367 -11.90917 67.31886 53.05942 116.38206 -62.27502 -25.33527 -0.36111 34.75435 7.60511 -22.08438 -21.051 -4.03762 -0.02607 -2.22934 48.73093 13.61467 2.79309 -42.97756 -6.56878 1.83656 3.13236
0.09015 -0.00062 0.10508 44.09233 -21.88851 -13.62443 39.65472 7.54968 0.48083 -11.00215 -11.50393 -2.11994 -60.60291 -61.8848 45.02077 115.79083 111.97641 -39.70976 -6.77367 -11.55878 67.92264 49.13283 117.95566 -62.16678 -25.04493 -0.41866 34.92165 7.54333 -22.08109 -21.08661 -6.17076 -0.94027 -2.69122 48.94643 13.34786 2.31485 -42.92949 -6.58036 1.84118 3.13451
0.08952 -0.00066 0.10504 44.33538 -21.92685 -13.6113 39.50493 7.56137 0.39618 -10.97996 -11.69153 -2.11994 -60.58716 -61.95462 44.80481 115.75186 112.02956 -39.02013 -6.83366 -11.74137 67.23351 47.2924 120.24484 -59.74412 -26.61103 -0.677 34.99179 7.45951 -21.9873 -21.10596 -6.53321 -1.12725 -2.78488 49.00727 13.28158 2.43565 -42.87872 -6.59334 1.80423 3.1171
0.08886 -0.0007 0.10495 44.48105 -21.93726 -13.57462 39.3167 7.57995 0.32245 -11.05812 -11.79861 -2.11994 -60.58556 -61.92506 44.64915 115.63107 112.28964 -38.72648 -6.90419 -12.12884 66.06007 46.23317 122.77221 -56.54416 -28.80346 -1.0026 35.03365 7.36539 -21.8585 -21.11871 -6.29568 -1.06419 -2.75192 49.01683 13.28116 2.76457 -42.82399 -6.60704 1.75386 3.0934
0.08822 -0.00073 0.10488 44.66427 -21.96566 -13.54547 39.15381 7.59538 0.26138 -11.10228 -11.93422 -2.11994 -60.58629 -61.93208 44.47181 115.54698 112.46343 -38.28176 -6.96897 -12.47094 65.09255 44.89326 125.14495 -53.77178 -30.66813 -1.28906 35.09437 7.27375 -21.74283 -21.13281 -6.34927 -1.12073 -2.77958 49.05274 13.24611 2.99589 -42.76688 -6.62065 1.71072 3.07313
